nColumns=19
nRows=51
DataType=double
version=3
OpenSimVersion=4.1
endheader
time	ground_force_calcn_r_vx	ground_force_calcn_r_vy	ground_force_calcn_r_vz	ground_force_calcn_r_px	ground_force_calcn_r_py	ground_force_calcn_r_pz	ground_force_calcn_r_mx	ground_force_calcn_r_my	ground_force_calcn_r_mz	ground_force_calcn_l_vx	ground_force_calcn_l_vy	ground_force_calcn_l_vz	ground_force_calcn_l_px	ground_force_calcn_l_py	ground_force_calcn_l_pz	ground_force_calcn_l_mx	ground_force_calcn_l_my	ground_force_calcn_l_mz
0	-0.0411428	270.569	-27.6238	-0.237737	0	-0.422771	0.000181506	-1.19365	0.121866	0.10033	280.176	27.3668	-0.237883	0	-0.754372	0.000587364	1.64025	0.160215
0.01	0.0148392	270.847	-27.6671	-0.237744	0	-0.422629	-6.60453e-05	-1.20547	0.123139	0.141929	280.096	27.3737	-0.237799	0	-0.754466	0.000832388	1.64271	0.160541
0.02	0.0696125	271.17	-27.7147	-0.237752	0	-0.422492	-0.000312454	-1.21714	0.124397	0.178451	280.08	27.3897	-0.23767	0	-0.754561	0.00104925	1.6468	0.161044
0.03	0.119672	271.542	-27.7674	-0.237761	0	-0.422362	-0.000541276	-1.22818	0.125592	0.205212	280.153	27.4165	-0.237487	0	-0.754655	0.00121075	1.65291	0.161758
0.04	0.161038	271.972	-27.8267	-0.237767	0	-0.422243	-0.000733217	-1.23831	0.126697	0.216514	280.34	27.4551	-0.237245	0	-0.754747	0.00128321	1.66149	0.162718
0.05	0.188797	272.47	-27.8943	-0.23777	0	-0.422135	-0.000864251	-1.24728	0.127691	0.205344	280.662	27.5061	-0.236936	0	-0.754834	0.001224	1.67295	0.163956
0.06	0.197238	273.039	-27.9713	-0.237764	0	-0.422037	-0.000906493	-1.25487	0.128554	0.163282	281.136	27.569	-0.236555	0	-0.754917	0.000980215	1.68772	0.165502
0.07	0.180345	273.68	-28.0588	-0.237747	0	-0.421949	-0.000830822	-1.2608	0.129263	0.0805329	281.774	27.6425	-0.236098	0	-0.754992	0.000487671	1.7063	0.167391
0.08	0.132327	274.388	-28.1571	-0.237715	0	-0.42187	-0.000609952	-1.26478	0.129788	-0.0541691	282.577	27.7235	-0.235561	0	-0.755061	-0.000331474	1.72915	0.169647
0.09	0.047999	275.153	-28.2656	-0.237666	0	-0.421797	-0.000220928	-1.26647	0.1301	-0.253321	283.54	27.807	-0.234942	0	-0.755122	-0.00156943	1.75665	0.172276
0.1	-0.0773738	275.957	-28.3822	-0.237597	0	-0.421731	0.000354818	-1.26547	0.130154	-0.530092	284.645	27.8856	-0.23424	0	-0.755174	-0.00333154	1.78894	0.175256
0.11	-0.247994	276.768	-28.5025	-0.237506	0	-0.421667	0.00113015	-1.26128	0.129891	-0.89738	285.863	27.9497	-0.233457	0	-0.755214	-0.00573177	1.82587	0.178521
0.12	-0.467234	277.543	-28.6195	-0.237391	0	-0.421607	0.00210984	-1.25327	0.129234	-1.3668	287.157	27.9884	-0.232594	0	-0.755241	-0.00888566	1.86682	0.181954
0.13	-0.737295	278.225	-28.7233	-0.237253	0	-0.421547	0.0032883	-1.24087	0.128105	-1.94732	288.48	27.9916	-0.231661	0	-0.755255	-0.012899	1.91089	0.185416
0.14	-1.05888	278.749	-28.802	-0.23709	0	-0.42149	0.0046479	-1.22355	0.126425	-2.64378	289.781	27.9522	-0.230667	0	-0.755253	-0.0178531	1.95685	0.188757
0.15	-1.43087	279.045	-28.843	-0.236904	0	-0.42144	0.00615815	-1.20094	0.124133	-3.45536	291.006	27.8674	-0.229624	0	-0.755238	-0.0237839	2.00305	0.191817
0.16	-1.85029	279.045	-28.8335	-0.236697	0	-0.421398	0.00777723	-1.1729	0.121195	-4.37412	292.096	27.7397	-0.22855	0	-0.755212	-0.0306603	2.04743	0.19444
0.17	-2.31232	278.694	-28.7624	-0.236472	0	-0.421367	0.00945471	-1.13954	0.117605	-5.38475	292.995	27.5765	-0.227463	0	-0.755175	-0.0383693	2.08775	0.196498
0.18	-2.81028	277.953	-28.621	-0.236239	0	-0.421351	0.011135	-1.10131	0.113403	-6.4652	293.656	27.39	-0.226392	0	-0.755132	-0.0467107	2.12165	0.197891
0.19	-3.33529	276.808	-28.4046	-0.236007	0	-0.421351	0.0127607	-1.05906	0.108675	-7.58757	294.037	27.1951	-0.225361	0	-0.755086	-0.0553988	2.14684	0.198558
0.2	-3.87601	275.27	-28.1132	-0.235792	0	-0.421368	0.0142779	-1.014	0.10356	-8.71922	294.105	27.0074	-0.224403	0	-0.755042	-0.0640788	2.16142	0.198481
0.21	-4.41925	273.369	-27.7506	-0.235611	0	-0.421406	0.0156427	-0.967636	0.098228	-9.82504	293.838	26.8395	-0.223547	0	-0.755	-0.0723601	2.16408	0.197669
0.22	-4.95052	271.147	-27.3239	-0.235486	0	-0.421463	0.0168237	-0.921461	0.0928569	-10.8699	293.227	26.6975	-0.222823	0	-0.754962	-0.0798592	2.15428	0.196142
0.23	-5.45412	268.657	-26.8425	-0.235441	0	-0.421542	0.0178037	-0.876967	0.087621	-11.8209	292.276	26.5793	-0.222257	0	-0.754924	-0.0862476	2.13251	0.193929
0.24	-5.9142	265.951	-26.3167	-0.235503	0	-0.421644	0.0185792	-0.835473	0.0826727	-12.6489	291.005	26.4748	-0.221871	0	-0.754884	-0.0912858	2.10016	0.191066
0.25	-6.31558	263.082	-25.7564	-0.235696	0	-0.421767	0.0191556	-0.797944	0.0781208	-13.3298	289.44	26.3677	-0.221685	0	-0.754837	-0.0948309	2.05914	0.187585
0.26	-6.64399	260.09	-25.1707	-0.236042	0	-0.421909	0.0195433	-0.765055	0.0740395	-13.8447	287.606	26.2385	-0.221713	0	-0.754778	-0.0968328	2.01158	0.183518
0.27	-6.88668	257.008	-24.5676	-0.236564	0	-0.422072	0.019752	-0.737135	0.0704636	-14.1803	285.52	26.0683	-0.221968	0	-0.754703	-0.0973194	1.95952	0.178907
0.28	-7.03303	253.851	-23.9542	-0.237273	0	-0.422251	0.019786	-0.714158	0.0673903	-14.33	283.184	25.8418	-0.222451	0	-0.754607	-0.0963718	1.90446	0.17379
0.29	-7.07546	250.627	-23.3363	-0.238177	0	-0.422446	0.019645	-0.695867	0.0647932	-14.2926	280.587	25.5501	-0.223159	0	-0.75449	-0.0941018	1.84736	0.16822
0.3	-7.01046	247.333	-22.7187	-0.239274	0	-0.422654	0.0193288	-0.681932	0.0626384	-14.0711	277.696	25.1904	-0.22408	0	-0.754351	-0.0906358	1.78871	0.162258
0.31	-6.83829	243.956	-22.1046	-0.240551	0	-0.422871	0.0188373	-0.672021	0.0608911	-13.672	274.469	24.7656	-0.225194	0	-0.754192	-0.086109	1.72867	0.155979
0.32	-6.56056	240.474	-21.4952	-0.241991	0	-0.423097	0.0181672	-0.665908	0.0595234	-13.1045	270.855	24.2817	-0.22648	0	-0.754018	-0.0806614	1.66718	0.14946
0.33	-6.17833	236.861	-20.8892	-0.243575	0	-0.423328	0.0173049	-0.663423	0.0585086	-12.3802	266.803	23.7471	-0.227908	0	-0.753835	-0.0744375	1.60419	0.142783
0.34	-5.69071	233.091	-20.283	-0.24528	0	-0.42356	0.0162187	-0.664318	0.0578072	-11.5112	262.268	23.1714	-0.229452	0	-0.753649	-0.0675874	1.5399	0.13605
0.35	-5.09443	229.143	-19.671	-0.24709	0	-0.423796	0.0148573	-0.668266	0.0573679	-10.5095	257.218	22.5653	-0.23109	0	-0.753467	-0.0602619	1.4749	0.129391
0.36	-4.3856	225.006	-19.048	-0.248991	0	-0.424033	0.0131527	-0.674806	0.0571262	-9.38683	251.638	21.9411	-0.232799	0	-0.753293	-0.0526034	1.41017	0.122957
0.37	-3.56256	220.686	-18.4119	-0.250968	0	-0.424273	0.0110298	-0.683249	0.0570035	-8.156	245.543	21.3125	-0.234563	0	-0.753137	-0.0447398	1.34693	0.11691
0.38	-2.62887	216.21	-17.7654	-0.253009	0	-0.424517	0.00842222	-0.692682	0.0569158	-6.83134	238.968	20.6945	-0.236367	0	-0.753002	-0.0367754	1.28645	0.111406
0.39	-1.59518	211.624	-17.1184	-0.2551	0	-0.424762	0.0052924	-0.702115	0.0567944	-5.42951	231.974	20.1026	-0.238203	0	-0.752894	-0.0287887	1.22999	0.10659
0.4	-0.479163	206.994	-16.487	-0.257231	0	-0.425001	0.00164496	-0.71061	0.0565998	-3.97023	224.638	19.5512	-0.240061	0	-0.752817	-0.0208339	1.17879	0.102595
0.41	0.696501	202.402	-15.8926	-0.259388	0	-0.425228	-0.00246877	-0.717418	0.0563318	-2.47837	217.044	19.0509	-0.241932	0	-0.752773	-0.0129486	1.13398	0.0995346
0.42	1.90758	197.942	-15.36	-0.261563	0	-0.425435	-0.0069591	-0.722115	0.0560351	-0.985839	209.277	18.6079	-0.243806	0	-0.752764	-0.00516487	1.09641	0.0974881
0.43	3.13167	193.705	-14.9133	-0.263749	0	-0.425607	-0.0117171	-0.724741	0.0557976	0.468573	201.422	18.2215	-0.245669	0	-0.752789	0.00248119	1.06657	0.0964866
0.44	4.35077	189.761	-14.5702	-0.265941	0	-0.425737	-0.0166418	-0.72584	0.0557313	1.84111	193.568	17.8848	-0.247512	0	-0.752845	0.00993498	1.04453	0.0965096
0.45	5.55403	186.139	-14.3358	-0.268142	0	-0.425818	-0.0216766	-0.726472	0.0559504	3.08638	185.827	17.5874	-0.249321	0	-0.752928	0.0171099	1.03017	0.0974991
0.46	6.73774	182.817	-14.2003	-0.270353	0	-0.425852	-0.02684	-0.728257	0.0565673	4.16184	178.344	17.3206	-0.251088	0	-0.753031	0.0238774	1.0232	0.0993722
0.47	7.89798	179.738	-14.1417	-0.272574	0	-0.425841	-0.03222	-0.733243	0.0576914	5.03406	171.303	17.0799	-0.2528	0	-0.753151	0.0300718	1.02331	0.10203
0.48	9.0209	176.836	-14.1311	-0.274797	0	-0.425795	-0.0379293	-0.743524	0.0594155	5.68551	164.915	16.864	-0.254442	0	-0.753285	0.0355199	1.0303	0.105357
0.49	10.0805	174.079	-14.1381	-0.276998	0	-0.425723	-0.0440645	-0.760943	0.0618011	6.11995	159.393	16.6728	-0.255991	0	-0.753428	0.0400928	1.04421	0.109226
0.5	11.0457	171.494	-14.1343	-0.279141	0	-0.425631	-0.0506826	-0.786893	0.0648544	6.36311	154.939	16.5057	-0.257421	0	-0.753575	0.0437522	1.06534	0.113492
